#!OML:ASF E:/inclinewalkrobotboard/Project1/Captureday1/Session1/subject1.ASF
:FULLY-SPECIFIED
:DEGREES
38
root 0 0 0 -1.5941351794356986 -5.928832258728665 -7.962115291378101
lowerback 8.80261256192049 2.7915612448955565 6.4160301635971
upperback -0.09768794330073126 4.437482247545553 1.1028264528700218
thorax -4.909293588900988 2.0458675876444463 -3.0316538421860115
lowerneck -14.290952142884905 -3.209298447979367 -1.3248041909882657
upperneck 12.962316173896518 -4.501447321092492 2.380286943397534
head 6.298436701532133 -2.0785238790536207 0.5430739114722953
rclavicle -4.84875393719494E-15 -2.33748826567294E-16
rhumerus -29.663177151166025 -18.61551930406538 -83.4519315041571
rradius 23.537682255947026
rwrist 17.16552786163856
rhand -19.93506646046444 30.29049827307857
rfingers 7.125019999999993
rthumb 6.426923316702317 0.15429146131989313
lclavicle -5.655595768971664E-15 -7.1295216943433E-16
lhumerus -35.243925845737415 8.703050196775541 80.28759024654265
lradius 15.541372327314743
lwrist -2.442825987873267
lhand -26.755961988622943 26.717496796902168
lfingers 7.125019999999981
lthumb -0.23493236391665295 56.73472133982209
rfemur -8.476800290316108 5.187906820897364 28.710656979428723
rtibia 42.194009536776896
rfoot -7.944226656313489 -5.179769638290421
rtoes 6.920188055218979
lfemur -21.243098428361506 1.447732479678411 -16.17196968797815
ltibia 41.227056359735755
lfoot 0.3593846523421593 -6.14421574569233
ltoes -3.5888693789008634
39
root 0 0 0 -1.707079029979762 -6.054792712247224 -7.808409472612318
lowerback 8.638879700005516 2.82575069766768 6.315197728909846
upperback -0.06303892594347509 4.460302640539085 1.0791806567857893
thorax -4.775302789829659 2.06498719173748 -2.9916494663091675
lowerneck -14.018834037855036 -3.2222305616980056 -1.4364183694068307
upperneck 12.628457284107181 -4.518373798067013 2.638777956976937
head 6.1287730705885295 -2.084791351550366 0.650571385792016
rclavicle -4.791829045782266E-15 -3.6210176080912796E-16
rhumerus -30.009683091719523 -18.052553191242083 -83.77795084413954
rradius 22.88965779158528
rwrist 16.560529660624603
rhand -19.723228908167883 30.52887481392068
rfingers 7.125019999999995
rthumb 6.628737105756633 0.4040371483634573
lclavicle -5.722528115148489E-15 -7.873591495826566E-16
lhumerus -35.130988921981675 8.584937339786165 80.27979569477158
lradius 15.652202516711146
lwrist -2.2971438302325917
lhand -26.831480399162434 26.84478948659538
lfingers 7.125019999999982
lthumb -0.3062790523103853 56.869772871877906
rfemur -9.291676791550547 5.385082166413806 29.3452502752195
rtibia 42.63195005501931
rfoot -8.50640473422012 -5.584448896495582
rtoes 6.74224769118152
lfemur -21.24534938807438 1.2675561123161136 -16.138866238634762
ltibia 40.820095335075194
lfoot 0.05738666195270348 -5.82894609686967
ltoes -3.7872473646524902
40
root 0 0 0 -1.7637597597964547 -6.139099182635184 -7.668802712153928
lowerback 8.544868614388555 2.8751391166290845 6.198630772290106
upperback -0.04337853694648088 4.503542312057422 1.0443386425184833
thorax -4.696947313847522 2.0939762207268773 -2.959724110968968
lowerneck -13.730470469830731 -3.2515235430697427 -1.5249011990527945
upperneck 12.47164531296561 -4.570606602331986 2.8935585259979737
head 6.028178755407902 -2.1033502404378384 0.7492294689766681
rclavicle -4.6514924756057715E-15 -6.369582099870484E-16
rhumerus -30.33979028625602 -17.47639722988048 -84.08705983412764
rradius 22.290535979543726
rwrist 15.947056469642746
rhand -19.5139046207322 30.723194958533725
rfingers 7.125019999999997
rthumb 6.82831318960124 0.6135090374566943
lclavicle -5.655927733712001E-15 -9.114630358361944E-16
lhumerus -35.05844390858156 8.501870297468896 80.18196916128046
lradius 15.782125370297912
lwrist -2.1433023179169886
lhand -26.92200223031338 26.964711003416284
lfingers 7.125019999999984
lthumb -0.3932243410272509 56.9997449509208
rfemur -9.58239580154587 5.585629295755277 29.553727696699745
rtibia 41.58054794662241
rfoot -9.241266552201283 -5.893820834232201
rtoes 6.170657738616331
lfemur -21.094259778175168 1.0072609476648067 -16.142647652199493
ltibia 40.13066387263246
lfoot -0.47005432556957594 -5.351463489895423
ltoes -4.142101526930102
41
root 0 0 0 -1.8115310298301468 -6.167947358891856 -7.5081007484516356
lowerback 8.512956702808955 2.939055230244015 6.019322790583369
upperback -0.03959555460967418 4.562387693071663 0.9924942090524973
thorax -4.671617087632299 2.1315532491199116 -2.9140342332891174
lowerneck -13.420089792125022 -3.3215533035332245 -1.6055677203597507
upperneck 12.405771960906824 -4.691725917985815 3.18349439443651
head 5.965917142998347 -2.1496670794797446 0.8520391377047658
rclavicle -4.250257367082322E-15 -1.0755785585473954E-15
rhumerus -30.620325381610662 -17.053504348711854 -84.24751957254556
rradius 21.56616041252883
rwrist 15.10446065917234
rhand -19.245011386441575 30.834400904077775
rfingers 7.125019999999998
rthumb 7.084929268024257 0.7525578184770865
lclavicle -5.292432618484267E-15 -1.0387361431817453E-15
lhumerus -35.047761353397114 8.441951626344434 79.92300339537174
lradius 16.00441003867569
lwrist -1.912606879967981
lhand -27.056856614700983 27.11376549934284
lfingers 7.125019999999985
lthumb -0.5231637831150806 57.166651131784946
rfemur -9.679324343674605 5.740514513529778 29.36041453427258
rtibia 39.65388756585297
rfoot -9.96553507020052 -6.140485650201535
rtoes 5.330522858030824
lfemur -20.481417830190217 0.6079720887468048 -16.361874972050405
ltibia 39.03117311618022
lfoot -1.2744202205017796 -4.757040604251463
ltoes -4.293811025822173
42
root 0 0 0 -1.8311516730734057 -6.153440992059684 -7.428493075819665
lowerback 8.553482592477573 2.964602489287793 5.916899617828304
upperback -0.015077783505013473 4.584193074268592 0.9694575678842601
thorax -4.666849567899176 2.1461207582673856 -2.8815123330098342
lowerneck -13.265640303371043 -3.365491115468296 -1.6337678475016117
upperneck 12.453654337622456 -4.765167249477934 3.307579189995648
head 5.96392165288668 -2.178480091189028 0.8926855811193031
rclavicle -3.949102196833737E-15 -1.357301795203005E-15
rhumerus -30.65872913021333 -16.95149226915047 -84.23563310583843
rradius 21.318777186964596
rwrist 14.756141852441015
rhand -19.14438306049478 30.872501500999043
rfingers 7.125019999999998
rthumb 7.180597422175487 0.803764852350227
lclavicle -5.02442916235667E-15 -1.1262205517674944E-15
lhumerus -35.056692733920016 8.409918481293776 79.77031337269578
lradius 16.145411420599647
lwrist -1.7781008491282777
lhand -27.127913110346267 27.18614061268593
lfingers 7.125019999999986
lthumb -0.5918697992667221 57.24902063904104
rfemur -9.80251899421181 5.729083993658605 29.089195814565834
rtibia 38.97322280237442
rfoot -10.057116353596175 -6.198083759568474
rtoes 5.025391853416375
lfemur -19.950540674527304 0.3830326108993778 -16.608880666900465
ltibia 38.430369716803206
lfoot -1.6742100070239303 -4.530998712845792
ltoes -4.064690659612076
